<svg xmlns="http://www.w3.org/2000/svg" width="32" height="32" fill="none" viewBox="0 0 32 32">
  <path stroke="#101828" stroke-linecap="round" stroke-linejoin="round" stroke-width="2" d="M16 18a3 3 0 1 0 0-6 3 3 0 0 0 0 6Z"/>
  <path stroke="#101828" stroke-linecap="round" stroke-linejoin="round" stroke-width="2" d="M16.362 28h-.725a2 2 0 0 1-1.962-1.613l-1.2-6A2.001 2.001 0 0 1 14.437 18h3.125a2 2 0 0 1 1.963 2.387l-1.2 6A2 2 0 0 1 16.362 28v0Z"/>
  <path stroke="#101828" stroke-linecap="round" stroke-linejoin="round" stroke-width="2" d="M8.537 18.9a8 8 0 1 1 14.925 0"/>
  <path stroke="#101828" stroke-linecap="round" stroke-linejoin="round" stroke-width="2" d="M9.55 26.113a12 12 0 1 1 12.9 0"/>
</svg>
