<svg xmlns="http://www.w3.org/2000/svg" width="32" height="32" fill="none" viewBox="0 0 32 32">
  <path stroke="#101828" stroke-linecap="round" stroke-linejoin="round" stroke-width="2" d="M10 5H6a1 1 0 0 0-1 1v20a1 1 0 0 0 1 1h4a1 1 0 0 0 1-1V6a1 1 0 0 0-1-1Zm-5 5h6m5-5h-4a1 1 0 0 0-1 1v20a1 1 0 0 0 1 1h4a1 1 0 0 0 1-1V6a1 1 0 0 0-1-1Zm-5 17h6m4.942-17.327-3.88 1.04a1.004 1.004 0 0 0-.71 1.23l5.2 19.4c.143.535.694.853 1.23.71l3.88-1.04c.536-.144.853-.695.71-1.23l-5.2-19.4a1.004 1.004 0 0 0-1.23-.71ZM21.4 22.4l5.8-1.563M18.3 10.8l5.8-1.55"/>
</svg>
