<svg xmlns="http://www.w3.org/2000/svg" width="32" height="32" fill="none" viewBox="0 0 32 32">
  <path stroke="#101828" stroke-linecap="round" stroke-linejoin="round" stroke-width="2" d="M16 22V10m-5 8a5 5 0 1 1-5 5v-.837"/>
  <path stroke="#101828" stroke-linecap="round" stroke-linejoin="round" stroke-width="2" d="M21 18a4.999 4.999 0 1 0 5 5v-.837"/>
  <path stroke="#101828" stroke-linecap="round" stroke-linejoin="round" stroke-width="2" d="M9 22.5H8a6 6 0 0 1-2-11.662V9a5 5 0 0 1 10 0v14m7-.5h1a6 6 0 0 0 2-11.662V9a5 5 0 0 0-10 0"/>
  <path stroke="#101828" stroke-linecap="round" stroke-linejoin="round" stroke-width="2" d="M11 10.5v1A3.5 3.5 0 0 1 7.5 15M21 10.5v1a3.5 3.5 0 0 0 3.5 3.5"/>
</svg>
