<svg xmlns="http://www.w3.org/2000/svg" width="32" height="32" fill="none" viewBox="0 0 32 32">
  <path stroke="#101828" stroke-linecap="round" stroke-linejoin="round" stroke-width="2" d="M26 26H6a2 2 0 0 1-2-2V10a2 2 0 0 1 2-2h4l2-3h8l2 3h4a2 2 0 0 1 2 2v14a2 2 0 0 1-2 2Z"/>
  <path stroke="#101828" stroke-linecap="round" stroke-linejoin="round" stroke-width="2" d="m21.5 15-1.963-2.037a5.013 5.013 0 0 0-7.075 0m7.076 7.075a5.013 5.013 0 0 1-7.075 0L10.5 18"/>
  <path stroke="#101828" stroke-linecap="round" stroke-linejoin="round" stroke-width="2" d="m22 12-.5 3-3 .5m-5 2-3 .5-.5 3"/>
</svg>
