<svg xmlns="http://www.w3.org/2000/svg" width="32" height="32" fill="none" viewBox="0 0 32 32">
  <path stroke="#101828" stroke-linecap="round" stroke-linejoin="round" stroke-width="2" d="M11 18.5a8.5 8.5 0 1 1 8.5 8.5h-10a5.5 5.5 0 1 1 1.787-10.7"/>
  <path stroke="#101828" stroke-linecap="round" stroke-linejoin="round" stroke-width="2" d="M5.875 17.363A8.013 8.013 0 0 1 1.2 11.8v0c.591.13 1.195.197 1.8.2a8.013 8.013 0 0 0 8-8 8.54 8.54 0 0 0-.2-1.8A8 8 0 0 1 17 10c0 .125 0 .25-.012.375"/>
</svg>
