<svg xmlns="http://www.w3.org/2000/svg" width="32" height="32" fill="none" viewBox="0 0 32 32">
  <path stroke="#101828" stroke-linecap="round" stroke-linejoin="round" stroke-width="2" d="M12 15c5.523 0 10-2.015 10-4.5S17.523 6 12 6 2 8.015 2 10.5 6.477 15 12 15Z"/>
  <path stroke="#101828" stroke-linecap="round" stroke-linejoin="round" stroke-width="2" d="M2 10.5v5C2 17.988 6.475 20 12 20s10-2.012 10-4.5v-5M8 14.625v5"/>
  <path stroke="#101828" stroke-linecap="round" stroke-linejoin="round" stroke-width="2" d="M22 12.088c4.563.425 8 2.237 8 4.412 0 2.488-4.475 4.5-10 4.5-2.45 0-4.7-.4-6.438-1.05"/>
  <path stroke="#101828" stroke-linecap="round" stroke-linejoin="round" stroke-width="2" d="M10 19.913V21.5c0 2.488 4.475 4.5 10 4.5s10-2.012 10-4.5v-5m-6 4.125v5m-8-11v11"/>
</svg>
