<svg xmlns="http://www.w3.org/2000/svg" width="32" height="32" fill="none" viewBox="0 0 32 32">
  <path stroke="#101828" stroke-linecap="round" stroke-linejoin="round" stroke-width="2" d="M28 15.925a11.95 11.95 0 0 1-3.525 8.563C19.863 29.1 12.313 29.15 7.638 24.6A12 12 0 0 1 16.075 4a1.013 1.013 0 0 1 .975 1.225A3.999 3.999 0 0 0 20.9 10.1a1 1 0 0 1 1 1 4 4 0 0 0 4.875 3.85 1.011 1.011 0 0 1 1.225.975v0Z"/>
  <path fill="#101828" d="M19.5 23a1.5 1.5 0 1 0 0-3 1.5 1.5 0 0 0 0 3Zm-8-1a1.5 1.5 0 1 0 0-3 1.5 1.5 0 0 0 0 3Zm-1-7a1.5 1.5 0 1 0 0-3 1.5 1.5 0 0 0 0 3Zm6.5 2a1.5 1.5 0 1 0 0-3 1.5 1.5 0 0 0 0 3Z"/>
</svg>
