<svg xmlns="http://www.w3.org/2000/svg" width="32" height="32" fill="none" viewBox="0 0 32 32">
  <path stroke="#101828" stroke-linecap="round" stroke-linejoin="round" stroke-width="2" d="M19 4v7h7"/>
  <path stroke="#101828" stroke-linecap="round" stroke-linejoin="round" stroke-width="2" d="M22 28h3a1 1 0 0 0 1-1V11l-7-7H7a1 1 0 0 0-1 1v11"/>
  <path stroke="#101828" stroke-linecap="round" stroke-linejoin="round" stroke-width="2" d="M13 20H6a1 1 0 0 0-1 1v5a1 1 0 0 0 1 1h7a1 1 0 0 0 1-1v-5a1 1 0 0 0-1-1Zm1 2.5 4-2v6.15l-4-2.15"/>
</svg>
