<svg xmlns="http://www.w3.org/2000/svg" width="32" height="32" fill="none" viewBox="0 0 32 32">
  <path stroke="#101828" stroke-linecap="round" stroke-linejoin="round" stroke-width="2" d="M25 14v11.113a.888.888 0 0 1-.887.887H5a1 1 0 0 1-1-1V11a1 1 0 0 1 1-1h5.662c.217 0 .427.071.6.2l3.476 2.6c.173.129.383.2.6.2H24a1 1 0 0 1 1 1Z"/>
  <path stroke="#101828" stroke-linecap="round" stroke-linejoin="round" stroke-width="2" d="M25 14v11.113a.888.888 0 0 1-.887.887H5a1 1 0 0 1-1-1V11a1 1 0 0 1 1-1h5.662c.217 0 .427.071.6.2l3.476 2.6c.173.129.383.2.6.2H24a1 1 0 0 1 1 1Z"/>
  <path stroke="#101828" stroke-linecap="round" stroke-linejoin="round" stroke-width="2" d="M8 10V7a1 1 0 0 1 1-1h5.662c.217 0 .427.071.6.2l3.476 2.6c.173.129.383.2.6.2H28a1 1 0 0 1 1 1v11.113a.888.888 0 0 1-.887.887H25"/>
</svg>
