<svg xmlns="http://www.w3.org/2000/svg" width="32" height="32" fill="none" viewBox="0 0 32 32">
  <path stroke="#101828" stroke-linecap="round" stroke-linejoin="round" stroke-width="2" d="M16 28c6.627 0 12-5.373 12-12S22.627 4 16 4 4 9.373 4 16s5.373 12 12 12Z"/>
  <path stroke="#101828" stroke-linecap="round" stroke-linejoin="round" stroke-width="2" d="m6.2 22.925 1.463-.887a1 1 0 0 0 .475-.85l.025-4.513a.962.962 0 0 1 .162-.525l2.475-3.887a1.011 1.011 0 0 1 1.438-.275l2.45 1.774c.211.148.468.214.725.188l3.937-.537a.975.975 0 0 0 .613-.338l2.775-3.2a1.01 1.01 0 0 0 .237-.7l-.137-3.038m.55 19.325-1.35-1.35a1.026 1.026 0 0 0-.45-.262l-2.688-.7a1 1 0 0 1-.725-1.112l.288-2.025a1.024 1.024 0 0 1 .612-.776l3.8-1.587a1 1 0 0 1 1.063.188l3.112 2.85"/>
</svg>
