<svg xmlns="http://www.w3.org/2000/svg" width="32" height="32" fill="none" viewBox="0 0 32 32">
  <path stroke="#101828" stroke-linecap="round" stroke-linejoin="round" stroke-width="2" d="M22.35 8.963a5.785 5.785 0 0 1-1.863 4.212 6.662 6.662 0 0 1-8.975 0 5.7 5.7 0 0 1 0-8.425 6.625 6.625 0 0 1 8.975 0 5.749 5.749 0 0 1 1.863 4.213v0Z"/>
  <path stroke="#101828" stroke-linecap="round" stroke-linejoin="round" stroke-width="2" d="M23.5 21.962a6.8 6.8 0 0 1-2.2 4.976 7.837 7.837 0 0 1-10.6 0 6.737 6.737 0 0 1 0-9.963 7.837 7.837 0 0 1 10.6 0 6.8 6.8 0 0 1 2.2 4.987Z"/>
</svg>
