<svg xmlns="http://www.w3.org/2000/svg" width="32" height="32" fill="none" viewBox="0 0 32 32">
  <path stroke="#101828" stroke-linecap="round" stroke-linejoin="round" stroke-width="2" d="M19.425 12.662a10.488 10.488 0 0 0-6.887.013 1 1 0 0 0-.65.737l-.725 3.688a1.023 1.023 0 0 1-.613.737L4.638 20.2a.987.987 0 0 1-1.163-.313 6 6 0 0 1 .5-7.912 17.012 17.012 0 0 1 24.05 0 6 6 0 0 1 .5 7.912.987.987 0 0 1-1.162.313l-5.913-2.363a1.026 1.026 0 0 1-.612-.724l-.775-3.713a.986.986 0 0 0-.638-.738v0ZM5 25h22"/>
</svg>
