<svg xmlns="http://www.w3.org/2000/svg" width="32" height="32" fill="none" viewBox="0 0 32 32">
  <path stroke="#101828" stroke-linecap="round" stroke-linejoin="round" stroke-width="2" d="M2.925 9.462a.988.988 0 0 1 .275-1.35 21.975 21.975 0 0 1 25.6 0 .988.988 0 0 1 .275 1.35L16.837 28.675a.987.987 0 0 1-1.675 0L2.925 9.462Z"/>
  <path stroke="#101828" stroke-linecap="round" stroke-linejoin="round" stroke-width="2" d="M4.587 12.075a18.013 18.013 0 0 1 22.825 0m-6.874 10.788a3.5 3.5 0 1 1 3.6-5.663m-16.901-.975A3.5 3.5 0 1 1 10.5 21h-.225"/>
</svg>
