<svg xmlns="http://www.w3.org/2000/svg" width="32" height="32" fill="none" viewBox="0 0 32 32">
  <path stroke="#101828" stroke-linecap="round" stroke-linejoin="round" stroke-width="2" d="M11.487 19c0 1.663 2.025 3 4.513 3 2.487 0 4.512-1.337 4.512-3 0-4-8.775-2.5-8.775-6 0-1.662 1.775-3 4.263-3 1.862 0 3.325.75 3.937 1.838"/>
  <path stroke="#101828" stroke-linecap="round" stroke-linejoin="round" stroke-width="2" d="M26 5H6a1 1 0 0 0-1 1v20a1 1 0 0 0 1 1h20a1 1 0 0 0 1-1V6a1 1 0 0 0-1-1Z"/>
</svg>
