<svg xmlns="http://www.w3.org/2000/svg" width="32" height="32" fill="none" viewBox="0 0 32 32">
  <path stroke="#101828" stroke-linecap="round" stroke-linejoin="round" stroke-width="2" d="M15 26a2.5 2.5 0 1 0 0-5 2.5 2.5 0 0 0 0 5Zm0-5V6m15.037 4a2.5 2.5 0 0 1-3.537 0 2.5 2.5 0 0 0-3.538 0m7.075 5a2.5 2.5 0 0 1-3.537 0 2.5 2.5 0 0 0-3.538 0"/>
  <path stroke="#101828" stroke-linecap="round" stroke-linejoin="round" stroke-width="2" d="M11 18.375V6a4 4 0 1 1 8 0v12.375a6.5 6.5 0 1 1-8 0v0Z"/>
</svg>
