<svg xmlns="http://www.w3.org/2000/svg" width="32" height="32" fill="none" viewBox="0 0 32 32">
  <path stroke="#101828" stroke-linecap="round" stroke-linejoin="round" stroke-width="2" d="m6 5 20 22M13.387 7.188A17.973 17.973 0 0 1 16 7a18.2 18.2 0 0 1 12.863 5.275m-25.726 0A18.214 18.214 0 0 1 9.05 8.363m9.962 5.012a12.188 12.188 0 0 1 5.613 3.137m-17.25 0A12.338 12.338 0 0 1 13.5 13.25m-1.887 7.512a6.363 6.363 0 0 1 8.45-.3"/>
  <path fill="#101828" d="M16 26.5a1.5 1.5 0 1 0 0-3 1.5 1.5 0 0 0 0 3Z"/>
</svg>
